<svg id="_1" data-name="1" xmlns="http://www.w3.org/2000/svg" viewBox="0 0 149.7 12.7"><defs><style>.cls-1{fill:#80838c;fill-rule:evenodd;}</style></defs><title>logo</title><path class="cls-1" d="M7.7,16.5H9.1V12l5.5-8H12.9L8.4,10.5,3.9,3.9H2.2L7.7,12v4.5Zm10.2-6.3a4.06,4.06,0,0,1,.4-1.9A5.33,5.33,0,0,1,21,5.6a4.48,4.48,0,0,1,2-.4,4.06,4.06,0,0,1,1.9.4,5.33,5.33,0,0,1,2.7,2.7,4.06,4.06,0,0,1,.4,1.9,5.9,5.9,0,0,1-.2,1.4,3.1,3.1,0,0,1-.6,1.3,10.63,10.63,0,0,1-.9,1.1,8.34,8.34,0,0,1-1.2.8l.7,1.1a7.1,7.1,0,0,0,1.4-1,6.89,6.89,0,0,0,1.1-1.3A7.74,7.74,0,0,0,29,12a5.66,5.66,0,0,0,.3-1.8,7,7,0,0,0-.5-2.5,5.58,5.58,0,0,0-1.4-2,7.18,7.18,0,0,0-2-1.4,6.5,6.5,0,0,0-5,0,4.83,4.83,0,0,0-2,1.4,7.18,7.18,0,0,0-1.4,2,7,7,0,0,0-.5,2.5,11,11,0,0,0,.2,1.8,7.74,7.74,0,0,0,.7,1.6,4.49,4.49,0,0,0,1.1,1.3,7.1,7.1,0,0,0,1.4,1l.9-1.1a8.34,8.34,0,0,1-1.2-.8,3.13,3.13,0,0,1-.9-1.1,5.17,5.17,0,0,1-.6-1.3,6.75,6.75,0,0,1-.2-1.4Zm14,0a7,7,0,0,0,.5,2.5,5.58,5.58,0,0,0,1.4,2,6.25,6.25,0,0,0,2,1.3,6.5,6.5,0,0,0,5,0,5.78,5.78,0,0,0,2-1.3,7.18,7.18,0,0,0,1.4-2,7,7,0,0,0,.5-2.5V3.9H43.3v6.9a4.92,4.92,0,0,1-.6,1.7,7.55,7.55,0,0,1-1.1,1.4,3.77,3.77,0,0,1-1.5.9,5.55,5.55,0,0,1-3.6,0,3.77,3.77,0,0,1-1.5-.9,7.55,7.55,0,0,1-1.1-1.4,4.92,4.92,0,0,1-.6-1.7V3.9H31.9v6.3Zm24.7,6.3h1.5l-2.7-5.3a2.66,2.66,0,0,0,1.2-.3,3.92,3.92,0,0,0,1-.8A4.13,4.13,0,0,0,58.3,9a3,3,0,0,0,.2-1.3,4,4,0,0,0-.3-1.5A4.73,4.73,0,0,0,57.5,5a3.92,3.92,0,0,0-1-.8,2.66,2.66,0,0,0-1.2-.3h-8V16.5h1.4V5.2H55a1.88,1.88,0,0,1,.8.2,3.39,3.39,0,0,1,.6.6,2,2,0,0,1,.4.8,1.08,1.08,0,0,1,.2.8,2.49,2.49,0,0,1-.1.8,4.88,4.88,0,0,1-.3.7,3.39,3.39,0,0,1-.6.6,1.88,1.88,0,0,1-.8.2H53.3l3.3,6.6Zm27.3-6.3a7,7,0,0,0,.5,2.5,5.58,5.58,0,0,0,1.4,2,6.25,6.25,0,0,0,2,1.3,6.5,6.5,0,0,0,5,0,5.78,5.78,0,0,0,2-1.3,7.18,7.18,0,0,0,1.4-2,7,7,0,0,0,.5-2.5V3.9H95.3v6.9a4.92,4.92,0,0,1-.6,1.7,7.55,7.55,0,0,1-1.1,1.4,3.77,3.77,0,0,1-1.5.9,5.55,5.55,0,0,1-3.6,0,3.77,3.77,0,0,1-1.5-.9,7.55,7.55,0,0,1-1.1-1.4,4.92,4.92,0,0,1-.6-1.7V3.9H83.9v6.3ZM99.4,3.9V5.2h4.7V16.5h1.4V5.2h4.7V3.9ZM113,10.2a7,7,0,0,0,.5,2.5,5.58,5.58,0,0,0,1.4,2,6.25,6.25,0,0,0,2,1.3,6.5,6.5,0,0,0,5,0,5.78,5.78,0,0,0,2-1.3,7.18,7.18,0,0,0,1.4-2,7,7,0,0,0,.5-2.5V3.9h-1.4v6.9a4.92,4.92,0,0,1-.6,1.7,7.55,7.55,0,0,1-1.1,1.4,3.77,3.77,0,0,1-1.5.9,5.55,5.55,0,0,1-3.6,0,3.77,3.77,0,0,1-1.5-.9,7.55,7.55,0,0,1-1.1-1.4,4.92,4.92,0,0,1-.6-1.7V3.9H113v6.3Zm24.7,6.3h1.5l-2.7-5.3a2.66,2.66,0,0,0,1.2-.3,3.92,3.92,0,0,0,1-.8,4.13,4.13,0,0,0,.7-1.1,3,3,0,0,0,.2-1.3,4,4,0,0,0-.3-1.5,3.37,3.37,0,0,0-.6-1.2,3.92,3.92,0,0,0-1-.8,2.66,2.66,0,0,0-1.2-.3h-8V16.5h1.4V5.2h6.3a1.88,1.88,0,0,1,.8.2,3.39,3.39,0,0,1,.6.6,2,2,0,0,1,.4.8,2.49,2.49,0,0,1,.1.8,2.49,2.49,0,0,1-.1.8,4.88,4.88,0,0,1-.3.7,3.39,3.39,0,0,1-.6.6,1.88,1.88,0,0,1-.8.2h-1.9l3.3,6.6Zm14-6.6v1.3h-6V9.9Zm-9.4,6.6h9.6V15.2h-8.2V5.2h8.2V3.9h-9.6Z" transform="translate(-2.2 -3.8)"/><path class="cls-1" d="M81.2,7.1V4H70.3L68.7,7.1Zm-9.3,9.4V14.9a2.68,2.68,0,0,1,1.6-2.7,4,4,0,0,1,1.6-.4h6.2V8.7H75a5.82,5.82,0,0,0-4.4,1.6,6.24,6.24,0,0,0-1.6,3c0,.3-.1.5-.1.8s-.1.5-.1.8v1.6Z" transform="translate(-2.2 -3.8)"/></svg>