<svg id="Layer_1" fill="#4a8dec" data-name="Layer 1" xmlns="http://www.w3.org/2000/svg" xmlns:xlink="http://www.w3.org/1999/xlink" viewBox="0 0 91.1 87.1"><defs><style>.cls-1,.cls-2{fill:none;}.cls-1{clip-rule:evenodd;}.cls-3{clip-path:url(#clip-path);}.cls-4{clip-path:url(#clip-path-2);}</style><clipPath id="clip-path" transform="translate(4.5 4.6)"><path class="cls-1" d="M54.5,63.6c-7.5,0-11.5,2.4-15,4.5-3.3,2-6.1,3.7-12,3.7s-8.8-1.7-12-3.7C12,66,8.1,63.6.5,63.6v5.7c6,0,8.8,1.7,12,3.7,3.5,2.1,7.4,4.5,15,4.5S39,75.1,42.5,73c3.3-2,6.1-3.7,12-3.7s8.8,1.7,12,3.7c3.5,2.1,7.4,4.5,15,4.5V71.8c-6,0-8.8-1.7-12-3.7C66,66,62,63.6,54.5,63.6Z"/></clipPath><clipPath id="clip-path-2" transform="translate(4.5 4.6)"><path class="cls-2" d="M54.5,46.3a25.94,25.94,0,0,0-9.3,1.6V41.2H62.7v6.3A27.32,27.32,0,0,0,54.5,46.3Zm8.1-20.2v9.5H45.2V26.1ZM81.5,6.2V.5A18.83,18.83,0,0,0,62.7,18.9v1.4H45.2v-1A13.19,13.19,0,0,1,58.4,6.1V.4A18.83,18.83,0,0,0,39.6,18.8V50.6c-3.3,2-6.1,3.7-12,3.7s-8.8-1.7-12-3.7c-3.5-2.1-7.4-4.5-15-4.5V52c6,0,8.8,1.7,12,3.7,3.5,2.1,7.4,4.5,15,4.5s11.5-2.4,15-4.5c3.3-2,6.1-3.7,12-3.7s8.8,1.7,12,3.7c3.5,2.1,7.4,4.5,15,4.5V54.5c-6,0-8.8-1.7-12-3.7-.4-.2-.8-.5-1.2-.7V19.4A13,13,0,0,1,81.5,6.2Z"/></clipPath></defs><title>icon</title><g class="cls-3"><rect y="63.2" width="91" height="23.9"/></g><g class="cls-4"><rect x="0.1" width="91" height="69.8"/></g></svg>