<?xml version="1.0" encoding="utf-8"?>
<!-- Generator: Adobe Illustrator 23.0.1, SVG Export Plug-In . SVG Version: 6.00 Build 0)  -->
<svg version="1.1" id="Layer_1" xmlns="http://www.w3.org/2000/svg" xmlns:xlink="http://www.w3.org/1999/xlink" x="0px" y="0px"
	 viewBox="0 0 146 139" style="enable-background:new 0 0 146 139;" xml:space="preserve">
<style type="text/css">
	.st0{fill:#E9A71B;}
	.st1{fill:#2BAEED;}
	.st2{fill:#4A8DEC;}
	.st3{fill-rule:evenodd;clip-rule:evenodd;fill:#2BAEED;}
</style>
<title>logo</title>
<desc>Created with Sketch.</desc>
<g id="Page-1">
	<g id="Artboard" transform="translate(-137.000000, -146.000000)">
		<g id="logo" transform="translate(137.000000, 146.000000)">
			<path id="Oval" class="st0" d="M113,133.9l-3.1-4.7c18.8-12.4,30.3-33.3,30.3-56.2c0-37.1-30.1-67.2-67.2-67.2S5.8,35.9,5.8,73
				c0,6.7,1,13.3,2.9,19.6l-5.4,1.6C1.3,87.4,0.2,80.3,0.2,73C0.2,32.8,32.8,0.2,73,0.2s72.8,32.6,72.8,72.8
				C145.8,97.8,133.3,120.5,113,133.9z"/>
			<path class="st1" d="M115.9,111.6l-4.4-4.1C120.1,98.2,125,86,125,73c0-28.2-22.8-51-51-51c-26.7,0-48.9,20.6-50.9,47.1l-6-0.5
				C19.4,39,44.1,16,74,16c31.5,0,57,25.5,57,57C131,87.5,125.6,101.2,115.9,111.6z"/>
			<path id="Oval-Copy-2" class="st2" d="M101.8,102.2l-4.2-4.3C104.2,91.4,108,82.5,108,73c0-19.3-15.7-35-35-35S38,53.7,38,73
				c0,1.2,0.1,2.4,0.2,3.5l-6,0.6C32.1,75.8,32,74.4,32,73c0-22.6,18.4-41,41-41s41,18.4,41,41C114,84.1,109.5,94.6,101.8,102.2z"/>
			<path id="Combined-Shape" class="st3" d="M22.5,78v18.7c0,6.2-3.5,9-8,9c-2.7,0-4.7-1.1-5.5-1.6l1.7-4.7c0.8,0.5,1.7,1.1,3.1,1.1
				c2.2,0,3.1-1.7,3.1-5.3V78H22.5z M25.5,95.5c0-6,3.9-10.2,10.2-10.2S46,89.5,46,95.5s-3.8,10.2-10.2,10.2
				C29.4,105.7,25.5,101.5,25.5,95.5z M30.8,95.5c0,3.2,1.8,5.9,5,5.9c3.2,0,5-2.7,5-5.9c0-3.2-1.8-6-5-6
				C32.6,89.5,30.8,92.3,30.8,95.5z M67.2,85.9l-7.6,19.9c-2.4,6.1-4.8,7.5-10.8,6.9v-4.5c3.6,0.3,4.8-0.4,5.6-2.3l0.3-0.8L47,85.9
				h5.5l4.9,13.5l4.4-13.5H67.2z M14.9,128.8v9.6H9.3v-27.1h9.8c6,0,10.4,2.3,10.4,8.6s-4.4,8.9-10.4,8.9H14.9z M14.9,124.1h2.7
				c4.4,0,6.2-0.9,6.2-4.2c0-3.3-2.2-3.9-6.2-3.9h-2.7V124.1z M30,128.8c0-6,3.9-10.2,10.2-10.2s10.2,4.2,10.2,10.2
				c0,6-3.8,10.2-10.2,10.2C33.8,139,30,134.8,30,128.8z M35.2,128.8c0,3.2,1.8,5.9,5,5.9c3.2,0,5-2.7,5-5.9c0-3.2-1.8-6-5-6
				C37,122.8,35.2,125.6,35.2,128.8z M52.6,128.8c0-6,3.9-10.2,10.2-10.2s10.2,4.2,10.2,10.2c0,6-3.8,10.2-10.2,10.2
				C56.5,139,52.6,134.8,52.6,128.8z M57.9,128.8c0,3.2,1.8,5.9,5,5.9c3.2,0,5-2.7,5-5.9c0-3.2-1.8-6-5-6
				C59.7,122.8,57.9,125.6,57.9,128.8z M81.4,111.3v27.1h-5.2v-27.1H81.4z M106,130.7c0,5.6-5.3,8.3-10.9,8.3
				c-3.3,0-8.5-0.9-10.9-4.7l3.5-3.8c1.3,1.9,4.7,3.4,7.3,3.4c3.5,0,4.8-1.6,4.8-3.2c0-1.5-1-2.5-4.4-3.5
				c-6.8-1.7-10.4-3.7-10.4-8.8c0-4.8,3.9-7.7,9.9-7.7c3.3,0,7.5,0.6,9.7,3.2l-3.2,4c-2-1.7-4.3-2.4-6.5-2.4c-2.2,0-3.9,0.8-3.9,2.8
				c0,1.5,0.5,2.2,4.3,3.4C100.5,123.1,106,124.2,106,130.7z"/>
		</g>
	</g>
</g>
</svg>
