<svg id="Layer_1" fill="#ffffff" data-name="Layer 1" xmlns="http://www.w3.org/2000/svg" viewBox="0 0 113.39 95.02"><defs><style>.cls-1{fill-rule:evenodd;}</style></defs><title>menu</title><path class="cls-1" d="M74.23,95.78c-10.43,0-16.55-2.91-23-6a70.53,70.53,0,0,0-15-5.67C20.45,80.4,3.86,89.3,3.7,89.39A2.5,2.5,0,0,1,1.3,85c.75-.4,18.46-9.91,36-5.74a76.64,76.64,0,0,1,16.05,6c6.76,3.22,12.61,6,23.75,5.42,18.12-.94,31.91-11.53,32-11.63A2.5,2.5,0,0,1,112.25,83c-.61.47-15.12,11.65-34.86,12.68C76.29,95.75,75.24,95.78,74.23,95.78Zm.18-19.36c-10.43,0-16.55-2.91-23-6a70.53,70.53,0,0,0-15-5.67C20.62,61,4,69.94,3.88,70a2.5,2.5,0,0,1-2.4-4.39c.75-.4,18.46-9.91,36-5.74a76.08,76.08,0,0,1,16.05,6c6.76,3.22,12.61,6,23.75,5.42,18.12-.94,31.9-11.53,32-11.63a2.5,2.5,0,1,1,3.08,3.94c-.61.47-15.12,11.65-34.86,12.68C76.47,76.39,75.42,76.42,74.41,76.42Zm0-19.36c-10.43,0-16.55-2.91-23-6a70.53,70.53,0,0,0-15-5.67C20.62,41.67,4,50.58,3.88,50.67a2.5,2.5,0,0,1-2.4-4.39c.75-.41,18.46-9.91,36-5.74a76.08,76.08,0,0,1,16.05,6c6.76,3.22,12.61,6,23.75,5.42,18.12-.95,31.9-11.53,32-11.64a2.5,2.5,0,0,1,3.08,3.94c-.61.48-15.12,11.66-34.86,12.69C76.47,57,75.42,57.06,74.41,57.06Zm0-19.37c-10.43,0-16.55-2.91-23-6a71.62,71.62,0,0,0-15-5.67C20.62,22.31,4,31.22,3.88,31.31a2.5,2.5,0,0,1-2.4-4.39c.75-.41,18.46-9.91,36-5.74a76.08,76.08,0,0,1,16.05,6c6.76,3.22,12.61,6,23.75,5.42,18.12-.95,31.91-11.53,32-11.64a2.5,2.5,0,0,1,3.08,3.94c-.61.48-15.12,11.66-34.86,12.69C76.47,37.67,75.42,37.69,74.41,37.69Zm0-19.36c-10.43,0-16.55-2.91-23-6a71.62,71.62,0,0,0-15-5.67C20.62,3,4,11.86,3.88,12a2.5,2.5,0,0,1-2.4-4.39c.75-.41,18.46-9.92,36-5.74a76.08,76.08,0,0,1,16.05,6c6.76,3.22,12.61,6,23.75,5.41,18.12-.94,31.9-11.52,32-11.63a2.5,2.5,0,0,1,3.08,3.94c-.61.48-15.12,11.66-34.86,12.69C76.47,18.31,75.42,18.33,74.41,18.33Z" transform="translate(0 -0.76)"/></svg>