<svg id="Layer_1" fill="#ffffff" data-name="Layer 1" xmlns="http://www.w3.org/2000/svg" xmlns:xlink="http://www.w3.org/1999/xlink" viewBox="0 0 58 81.7">
    <defs>
        <style>.cls-1,.cls-2{fill:none;}.cls-2{clip-rule:evenodd;}.cls-3{clip-path:url(#clip-path);}.cls-4{clip-path:url(#clip-path-2);}</style>
        <clipPath id="clip-path" transform="translate(5 4.1)">
            <path class="cls-1" d="M24,66.6a18.09,18.09,0,0,1-18-18V24.9a18,18,0,0,1,36,0V48.6A18.09,18.09,0,0,1,24,66.6Zm24-18V24.9a24,24,0,0,0-48,0V48.6a24,24,0,0,0,48,0Z"/>
        </clipPath>
        <clipPath id="clip-path-2" transform="translate(5 4.1)"><path class="cls-2" d="M24,17a3,3,0,0,0-3,3v8a3,3,0,0,0,6,0V20A3,3,0,0,0,24,17Z"/>
        </clipPath>
    </defs>
    <title>mouse</title>
    <g class="cls-3">
        <rect width="58" height="81.7"/>
    </g>
    <g class="cls-4">
        <rect x="21" y="16.1" width="16" height="24"/>
    </g>
    <g class="cls-4">
        <rect x="21" y="16.1" width="16" height="24"/>
    </g>
</svg>
