<svg id="Layer_1" fill="#ffffff" data-name="Layer 1" xmlns="http://www.w3.org/2000/svg" xmlns:xlink="http://www.w3.org/1999/xlink" viewBox="0 0 105.13 73.42"><defs><style>.cls-1{fill:none;}.cls-2{clip-path:url(#clip-path);}</style><clipPath id="clip-path" transform="translate(4.56 4.71)"><path class="cls-1" d="M48,50.15A18.15,18.15,0,1,1,66.15,32,18.17,18.17,0,0,1,48,50.15ZM48,.29C26.94.29,6.15,15.4.44,32,6.15,48.6,26.94,63.71,48,63.71S89.85,48.6,95.56,32C89.85,15.4,69.06.29,48,.29Zm0,20.56A11.15,11.15,0,1,0,59.15,32,11.16,11.16,0,0,0,48,20.85Z"/></clipPath></defs><title>view</title><g class="cls-2"><rect width="105.13" height="73.42"/></g></svg>